<svg width="34" height="28" viewBox="0 0 34 28" fill="none" xmlns="http://www.w3.org/2000/svg">
<path d="M21.9999 0.666626C22.884 0.666626 23.7318 1.01782 24.3569 1.64294C24.9821 2.26806 25.3333 3.1159 25.3333 3.99996V5.66663H27.8666C28.3662 5.66669 28.8594 5.77906 29.3097 5.99542C29.7601 6.21179 30.156 6.52662 30.4683 6.91663L32.9349 10.0016C33.4084 10.5928 33.6665 11.3276 33.6666 12.085V19C33.6666 19.884 33.3154 20.7319 32.6903 21.357C32.0652 21.9821 31.2173 22.3333 30.3333 22.3333H28.6666C28.6666 23.6594 28.1398 24.9311 27.2021 25.8688C26.2644 26.8065 24.9927 27.3333 23.6666 27.3333C22.3405 27.3333 21.0687 26.8065 20.1311 25.8688C19.1934 24.9311 18.6666 23.6594 18.6666 22.3333H13.6666C13.6666 22.9899 13.5373 23.6401 13.286 24.2467C13.0347 24.8533 12.6664 25.4045 12.2021 25.8688C11.7378 26.3331 11.1866 26.7014 10.58 26.9527C9.97338 27.204 9.3232 27.3333 8.66659 27.3333C8.00998 27.3333 7.3598 27.204 6.75317 26.9527C6.14654 26.7014 5.59534 26.3331 5.13105 25.8688C4.66676 25.4045 4.29846 24.8533 4.04719 24.2467C3.79591 23.6401 3.66659 22.9899 3.66659 22.3333C2.78253 22.3333 1.93468 21.9821 1.30956 21.357C0.684441 20.7319 0.333252 19.884 0.333252 19V3.99996C0.333252 3.1159 0.684441 2.26806 1.30956 1.64294C1.93468 1.01782 2.78253 0.666626 3.66659 0.666626H21.9999ZM8.66659 20.6666C8.22456 20.6666 7.80064 20.8422 7.48807 21.1548C7.17551 21.4673 6.99992 21.8913 6.99992 22.3333C6.99992 22.7753 7.17551 23.1992 7.48807 23.5118C7.80064 23.8244 8.22456 24 8.66659 24C9.10861 24 9.53254 23.8244 9.8451 23.5118C10.1577 23.1992 10.3333 22.7753 10.3333 22.3333C10.3333 21.8913 10.1577 21.4673 9.8451 21.1548C9.53254 20.8422 9.10861 20.6666 8.66659 20.6666ZM23.6666 20.6666C23.2246 20.6666 22.8006 20.8422 22.4881 21.1548C22.1755 21.4673 21.9999 21.8913 21.9999 22.3333C21.9999 22.7753 22.1755 23.1992 22.4881 23.5118C22.8006 23.8244 23.2246 24 23.6666 24C24.1086 24 24.5325 23.8244 24.8451 23.5118C25.1577 23.1992 25.3333 22.7753 25.3333 22.3333C25.3333 21.8913 25.1577 21.4673 24.8451 21.1548C24.5325 20.8422 24.1086 20.6666 23.6666 20.6666ZM27.8666 8.99996H25.3333V15.6666H30.3333V12.0833L27.8666 8.99996Z" fill="white"/>
</svg>
