<svg width="55" height="45" viewBox="0 0 55 45" fill="none" xmlns="http://www.w3.org/2000/svg">
<path d="M49.1668 0.833336H5.83342C2.84612 0.833336 0.416748 3.26271 0.416748 6.25V38.75C0.416748 41.7373 2.84612 44.1667 5.83342 44.1667H49.1668C52.154 44.1667 54.5834 41.7373 54.5834 38.75V6.25C54.5834 3.26271 52.154 0.833336 49.1668 0.833336ZM28.8542 33.3333C27.0585 33.3333 25.3363 32.62 24.0665 31.3502C22.7968 30.0804 22.0834 28.3582 22.0834 26.5625C22.0834 24.7668 22.7968 23.0446 24.0665 21.7748C25.3363 20.505 27.0585 19.7917 28.8542 19.7917C30.324 19.7951 31.7517 20.2824 32.9167 21.1783C31.2809 22.4133 30.2084 24.3552 30.2084 26.5625C30.2084 28.7698 31.2809 30.7117 32.9167 31.9467C31.7517 32.8426 30.324 33.3299 28.8542 33.3333ZM39.6876 33.3333C37.8918 33.3333 36.1697 32.62 34.8999 31.3502C33.6301 30.0804 32.9167 28.3582 32.9167 26.5625C32.9167 24.7668 33.6301 23.0446 34.8999 21.7748C36.1697 20.505 37.8918 19.7917 39.6876 19.7917C41.4833 19.7917 43.2055 20.505 44.4753 21.7748C45.7451 23.0446 46.4584 24.7668 46.4584 26.5625C46.4584 28.3582 45.7451 30.0804 44.4753 31.3502C43.2055 32.62 41.4833 33.3333 39.6876 33.3333Z" fill="#0C70F2"/>
</svg>
