<svg width="65" height="65" viewBox="0 0 65 65" fill="none" xmlns="http://www.w3.org/2000/svg">
<path d="M54.167 10.8333H10.8337C7.84637 10.8333 5.41699 13.2627 5.41699 16.25V48.75C5.41699 51.7373 7.84637 54.1667 10.8337 54.1667H54.167C57.1543 54.1667 59.5837 51.7373 59.5837 48.75V16.25C59.5837 13.2627 57.1543 10.8333 54.167 10.8333ZM33.8545 43.3333C32.0588 43.3333 30.3366 42.62 29.0668 41.3502C27.797 40.0804 27.0837 38.3582 27.0837 36.5625C27.0837 34.7668 27.797 33.0446 29.0668 31.7748C30.3366 30.505 32.0588 29.7917 33.8545 29.7917C35.3242 29.7951 36.7519 30.2824 37.917 31.1783C36.2812 32.4133 35.2087 34.3552 35.2087 36.5625C35.2087 38.7698 36.2812 40.7117 37.917 41.9467C36.7519 42.8426 35.3242 43.3299 33.8545 43.3333ZM44.6878 43.3333C42.8921 43.3333 41.1699 42.62 39.9001 41.3502C38.6303 40.0804 37.917 38.3582 37.917 36.5625C37.917 34.7668 38.6303 33.0446 39.9001 31.7748C41.1699 30.505 42.8921 29.7917 44.6878 29.7917C46.4836 29.7917 48.2058 30.505 49.4755 31.7748C50.7453 33.0446 51.4587 34.7668 51.4587 36.5625C51.4587 38.3582 50.7453 40.0804 49.4755 41.3502C48.2058 42.62 46.4836 43.3333 44.6878 43.3333Z" fill="#0C70F2"/>
</svg>
