<svg width="65" height="65" viewBox="0 0 65 65" fill="none" xmlns="http://www.w3.org/2000/svg">
<path d="M41.844 44.7417L33.6919 36.5896C33.394 36.2917 33.0419 36.2375 32.8523 36.2375C32.6628 36.2375 32.3107 36.2917 32.0128 36.5896L23.8336 44.7688C22.9128 45.6896 21.4773 47.1792 16.6836 47.1792L26.7315 57.2C28.255 58.7215 30.32 59.5762 32.4732 59.5762C34.6263 59.5762 36.6914 58.7215 38.2148 57.2L48.2898 47.1521C45.8253 47.1521 43.7669 46.6646 41.844 44.7417ZM23.8336 20.2312L32.0128 28.4104C32.2294 28.6271 32.5544 28.7625 32.8523 28.7625C33.1503 28.7625 33.4753 28.6271 33.6919 28.4104L41.7898 20.3125C43.7128 18.3083 45.9065 17.8479 48.3711 17.8479L38.2961 7.8C36.7727 6.27845 34.7076 5.42382 32.5544 5.42382C30.4013 5.42382 28.3362 6.27845 26.8128 7.8L16.7648 17.8208C21.5315 17.8208 22.994 19.3917 23.8336 20.2312Z" fill="#37B4AA"/>
<path d="M57.1729 26.6771L51.0792 20.5562H47.6667C46.2042 20.5562 44.7417 21.1521 43.7396 22.2083L35.6146 30.3333C34.8563 31.0917 33.8542 31.4708 32.8521 31.4708C31.8202 31.4563 30.8325 31.0496 30.0896 30.3333L21.9104 22.1271C20.8813 21.0979 19.4729 20.5021 17.9833 20.5021H14.0021L7.80001 26.7312C6.27847 28.2547 5.42383 30.3198 5.42383 32.4729C5.42383 34.626 6.27847 36.6911 7.80001 38.2146L14.0021 44.4438H18.0104C19.4729 44.4438 20.8813 43.8479 21.9375 42.8188L30.1167 34.6396C30.875 33.8812 31.8771 33.5021 32.8792 33.5021C33.8813 33.5021 34.8833 33.8812 35.6417 34.6396L43.7938 42.7917C44.8229 43.8208 46.2313 44.4167 47.7209 44.4167H51.1333L57.2271 38.2958C58.755 36.745 59.607 34.6524 59.5969 32.4753C59.5867 30.2982 58.7153 28.2136 57.1729 26.6771Z" fill="#37B4AA"/>
</svg>
